<svg id="圖層_1" data-name="圖層 1" xmlns="http://www.w3.org/2000/svg" viewBox="0 0 308 376"><defs><style>.cls-1,.cls-3{fill:#ffc41d;}.cls-2{fill:#fff;}.cls-3{stroke:#fff;stroke-miterlimit:10;stroke-width:10px;}</style></defs><rect class="cls-1" y="23" width="308" height="353" rx="20.7"/><rect class="cls-2" x="49" y="86.73" width="31" height="35.54" rx="4"/><rect class="cls-2" x="49" y="157.73" width="31" height="35.54" rx="4"/><rect class="cls-2" x="49" y="228.73" width="31" height="35.54" rx="4"/><rect class="cls-2" x="49" y="299.73" width="31" height="35.54" rx="4"/><rect class="cls-2" x="108" y="91" width="164" height="27" rx="4"/><rect class="cls-2" x="108" y="162" width="164" height="27" rx="4"/><rect class="cls-2" x="108" y="233" width="164" height="27" rx="4"/><rect class="cls-2" x="108" y="304" width="164" height="27" rx="4"/><path class="cls-3" d="M771,738.06c0,4.38,2.54,7.94,5.67,7.94H909.33c3.13,0,5.67-3.56,5.67-7.94V726a8,8,0,0,0-8-8H779a8,8,0,0,0-8,8Z" transform="translate(-689 -713)"/></svg>